<svg xmlns="http://www.w3.org/2000/svg" viewBox="0 0 640 420" role="img" aria-labelledby="title desc">
  <title id="title">LAFA</title>
  <desc id="desc">Logo LAFA con silueta de auto electrico y conector naranja.</desc>
  <rect width="640" height="420" fill="none"/>
  <g fill="none" stroke="#111111" stroke-linecap="round" stroke-linejoin="round">
    <path d="M146 183c38-5 69-6 96-30 38-34 89-53 154-50 50 2 89 18 117 46 13 13 12 31-1 43-11 10-24 13-39 13h-55" stroke-width="18"/>
    <path d="M124 203c-19 2-33 17-33 36v22h38c8-23 29-39 54-39 24 0 45 16 53 39h173c8-23 30-39 55-39 25 0 47 16 55 39h40c19 0 34-15 34-34v-27" stroke-width="18"/>
    <path d="M214 190h143" stroke-width="18"/>
    <circle cx="183" cy="276" r="31" stroke-width="18"/>
    <circle cx="464" cy="276" r="31" stroke-width="18"/>
    <path d="M520 200h38" stroke-width="18"/>
  </g>
  <g fill="#E86F32">
    <path d="M365 161h31c8 0 15 7 15 15v13h25c7 0 13 6 13 13s-6 13-13 13h-25v13c0 8-7 15-15 15h-31z"/>
    <rect x="348" y="167" width="18" height="70" rx="3"/>
    <rect x="538" y="177" width="13" height="48" rx="4"/>
    <rect x="521" y="193" width="47" height="13" rx="4"/>
    <rect x="535" y="162" width="19" height="13" rx="4"/>
    <rect x="535" y="227" width="19" height="13" rx="4"/>
  </g>
  <text x="92" y="360" fill="#111111" font-family="Arial Black, Arial, sans-serif" font-size="116" font-weight="900" letter-spacing="8">LAFA</text>
</svg>
